HIERARCHY
ROOT joint_Root
{
	OFFSET 0.0 0.0 0.0
	CHANNELS 6 Xposition Yposition Zposition Zrotation Xrotation Yrotation 
	JOINT Hips
	{
		OFFSET -17.1583 93.1646 452.98
		CHANNELS 6 Xposition Yposition Zposition Zrotation Xrotation Yrotation 
		JOINT Spine
		{
			OFFSET 15.7357 0.0 0.0
			CHANNELS 6 Xposition Yposition Zposition Zrotation Xrotation Yrotation 
			JOINT Chest
			{
				OFFSET 8.98455 -0.406207 0.0
				CHANNELS 6 Xposition Yposition Zposition Zrotation Xrotation Yrotation 
				JOINT Neck
				{
					OFFSET 16.3773 0.0 0.0
					CHANNELS 6 Xposition Yposition Zposition Zrotation Xrotation Yrotation 
					JOINT Head
					{
						OFFSET 6.45672 0.0 0.0
						CHANNELS 6 Xposition Yposition Zposition Zrotation Xrotation Yrotation 
						End Site
						{
							OFFSET 0.0 0.0 0.0
						}
					}
				}
				JOINT Shoulder_L
				{
					OFFSET 12.9942 -0.242716 4.98039
					CHANNELS 6 Xposition Yposition Zposition Zrotation Xrotation Yrotation 
					JOINT UpperArm_L
					{
						OFFSET 5.34809 0.0 0.0
						CHANNELS 6 Xposition Yposition Zposition Zrotation Xrotation Yrotation 
						JOINT LowerArm_L
						{
							OFFSET 24.3286 1.87007e-05 0.0
							CHANNELS 6 Xposition Yposition Zposition Zrotation Xrotation Yrotation 
							JOINT Hand_L
							{
								OFFSET 22.2916 0.0 0.0
								CHANNELS 6 Xposition Yposition Zposition Zrotation Xrotation Yrotation 
								End Site
								{
									OFFSET 0.0 0.0 0.0
								}
							}
						}
					}
				}
				JOINT Shoulder_R
				{
					OFFSET 12.9945 -0.242716 -4.98039
					CHANNELS 6 Xposition Yposition Zposition Zrotation Xrotation Yrotation 
					JOINT UpperArm_R
					{
						OFFSET -5.34813 0.0 0.0
						CHANNELS 6 Xposition Yposition Zposition Zrotation Xrotation Yrotation 
						JOINT LowerArm_R
						{
							OFFSET -24.3289 0.000322201 0.0
							CHANNELS 6 Xposition Yposition Zposition Zrotation Xrotation Yrotation 
							JOINT Hand_R
							{
								OFFSET -22.2915 -0.000108084 0.0
								CHANNELS 6 Xposition Yposition Zposition Zrotation Xrotation Yrotation 
								End Site
								{
									OFFSET 0.0 0.0 0.0
								}
							}
						}
					}
				}
			}
		}
		JOINT UpperLeg_L
		{
			OFFSET -2.19248 -6.46944 0.0
			CHANNELS 6 Xposition Yposition Zposition Zrotation Xrotation Yrotation 
			JOINT LowerLeg_L
			{
				OFFSET 39.0811 0.0 -1.23785e-05
				CHANNELS 6 Xposition Yposition Zposition Zrotation Xrotation Yrotation 
				JOINT Foot_L
				{
					OFFSET 40.9854 0.0 -1.26872e-05
					CHANNELS 6 Xposition Yposition Zposition Zrotation Xrotation Yrotation 
					JOINT Toes_L
					{
						OFFSET 11.7543 0.0 0.0
						CHANNELS 6 Xposition Yposition Zposition Zrotation Xrotation Yrotation 
						End Site
						{
							OFFSET 0.0 0.0 0.0
						}
					}
				}
			}
		}
		JOINT UpperLeg_R
		{
			OFFSET -2.19251 6.46944 0.0
			CHANNELS 6 Xposition Yposition Zposition Zrotation Xrotation Yrotation 
			JOINT LowerLeg_R
			{
				OFFSET -39.0811 -0.00228153 -0.0401928
				CHANNELS 6 Xposition Yposition Zposition Zrotation Xrotation Yrotation 
				JOINT Foot_R
				{
					OFFSET -40.9854 0.0 0.0
					CHANNELS 6 Xposition Yposition Zposition Zrotation Xrotation Yrotation 
					JOINT Toes_R
					{
						OFFSET -11.7543 0.0 0.0
						CHANNELS 6 Xposition Yposition Zposition Zrotation Xrotation Yrotation 
						End Site
						{
							OFFSET 0.0 0.0 0.0
						}
					}
				}
			}
		}
	}
}
MOTION
Frames:	9
Frame Time:	0.0333333
0.000000 0.000000 0.000000 0.000000 0.000000 -0.000000 -2.502740 91.846700 -0.414806 85.285900 1.043700 7.254700 15.735700 0.000005 -0.000001 83.384300 85.734500 -81.522400 8.984550 -0.406207 -0.000000 0.728799 -1.096760 3.728180 16.377300 -0.000001 -0.000001 11.744800 1.760500 -0.994951 6.456720 -0.000001 -0.000000 -3.789450 0.793247 5.207310 12.994200 -0.242716 4.980390 -93.098700 8.929270 -70.772600 5.348090 -0.000007 -0.000001 -72.603100 21.938500 -1.515670 24.328600 0.000019 0.000005 11.176700 23.857800 -26.035500 22.291600 -0.000001 0.000005 -8.352520 5.014000 7.020140 12.994500 -0.242716 -4.980390 87.556000 6.646400 -69.757400 -5.348130 -0.000001 -0.000004 -69.496700 33.560700 -5.905430 -24.328900 0.000322 -0.000009 1.271470 4.561570 -15.605300 -22.291500 -0.000108 -0.000004 -2.320260 5.295200 0.206640 -2.192480 -6.469440 -0.000000 -175.391000 4.479890 -0.560529 39.081100 -0.000007 -0.000012 0.388624 -0.726699 28.137900 40.985400 -0.000006 -0.000013 1.363490 3.736630 -76.164900 11.754300 -0.000000 0.000003 -0.000397 0.174063 -9.516540 -2.192510 6.469440 -0.000001 -172.310000 9.618010 -173.689000 -39.081100 -0.002282 -0.040193 0.141559 -0.457481 16.812900 -40.985400 0.000008 0.000006 4.804610 2.109930 -72.170900 -11.754300 -0.000006 -0.000006 -0.011399 0.281476 -5.134790
0.000000 0.000000 0.000000 0.000000 0.000000 -0.000000 -2.473380 91.845600 -0.394305 85.271400 0.998865 7.164020 15.735700 0.000005 -0.000001 83.110200 85.755800 -81.202700 8.984550 -0.406207 -0.000000 0.683074 -1.135760 3.818900 16.377300 -0.000001 -0.000001 11.528900 1.800200 -1.116820 6.456720 -0.000001 -0.000000 -3.919620 0.851923 4.878170 12.994200 -0.242716 4.980390 -93.168100 9.117380 -70.745300 5.348090 -0.000007 -0.000001 -71.964100 21.641300 -1.666530 24.328600 0.000019 0.000005 11.923200 23.340700 -28.055900 22.291600 -0.000001 0.000005 -9.741520 5.025370 6.772480 12.994500 -0.242716 -4.980390 87.569100 6.609440 -69.754600 -5.348130 -0.000001 -0.000004 -69.531400 33.397400 -5.783790 -24.328900 0.000322 -0.000009 1.279800 4.601790 -15.572300 -22.291500 -0.000108 -0.000004 -2.256220 5.293620 0.250532 -2.192480 -6.469440 -0.000000 -175.394000 4.467130 -0.644661 39.081100 -0.000007 -0.000012 0.388192 -0.725649 28.145900 40.985400 -0.000006 -0.000013 1.379800 3.701550 -76.147900 11.754300 -0.000000 0.000003 -0.000460 0.175040 -9.476850 -2.192510 6.469440 -0.000001 -172.312000 9.610690 -173.754000 -39.081100 -0.002282 -0.040193 0.141726 -0.458548 16.795000 -40.985400 0.000008 0.000006 4.835260 2.141960 -72.162300 -11.754300 -0.000006 -0.000006 -0.011572 0.282701 -5.084630
0.000000 0.000000 0.000000 0.000000 0.000000 -0.000000 -2.450550 91.863900 -0.380486 85.261800 0.937791 6.986000 15.735700 0.000005 -0.000001 83.236000 85.804600 -81.294000 8.984550 -0.406207 -0.000000 0.588311 -1.109530 3.886880 16.377300 -0.000001 -0.000001 11.189200 1.817830 -1.249680 6.456720 -0.000001 -0.000000 -3.984650 0.843162 4.500260 12.994200 -0.242716 4.980390 -93.232900 9.208450 -70.558300 5.348090 -0.000007 -0.000001 -71.180100 20.941600 -2.029560 24.328600 0.000019 0.000005 12.557100 21.772800 -30.986700 22.291600 -0.000001 0.000005 -10.249400 5.041910 6.415130 12.994500 -0.242716 -4.980390 87.564300 6.621950 -69.752700 -5.348130 -0.000001 -0.000004 -69.517800 33.262900 -5.641910 -24.328900 0.000322 -0.000009 1.264730 4.563690 -15.519900 -22.291500 -0.000108 -0.000004 -2.246990 5.293150 0.263616 -2.192480 -6.469440 -0.000000 -175.382000 4.392200 -0.741755 39.081100 -0.000007 -0.000012 0.386496 -0.725783 28.037300 40.985400 -0.000006 -0.000013 1.394130 3.693820 -76.138000 11.754300 -0.000000 0.000003 -0.000388 0.173913 -9.522630 -2.192510 6.469440 -0.000001 -172.306000 9.524030 -173.884000 -39.081100 -0.002282 -0.040193 0.137453 -0.446921 16.705300 -40.985400 0.000008 0.000006 4.719670 2.233740 -72.089500 -11.754300 -0.000006 -0.000006 -0.011100 0.279352 -5.221730
0.000000 0.000000 0.000000 0.000000 0.000000 -0.000000 -2.440470 91.872200 -0.381597 85.256600 0.938229 6.862680 15.735700 0.000005 -0.000001 83.542700 85.844800 -81.569000 8.984550 -0.406207 -0.000000 0.513192 -1.059170 3.949460 16.377300 -0.000001 -0.000001 10.933400 1.751390 -1.465700 6.456720 -0.000001 -0.000000 -4.163220 0.703210 4.029720 12.994200 -0.242716 4.980390 -93.260900 9.204050 -70.394100 5.348090 -0.000007 -0.000001 -70.299400 19.913500 -2.465820 24.328600 0.000019 0.000005 14.057000 20.516800 -35.541200 22.291600 -0.000001 0.000005 -10.046900 5.040900 6.436890 12.994500 -0.242716 -4.980390 87.547500 6.653940 -69.714100 -5.348130 -0.000001 -0.000004 -69.497100 32.972400 -5.509730 -24.328900 0.000322 -0.000009 1.298460 4.735000 -15.366100 -22.291500 -0.000108 -0.000004 -2.324960 5.293210 0.262009 -2.192480 -6.469440 -0.000000 -175.380000 4.402860 -0.851305 39.081100 -0.000007 -0.000012 0.384246 -0.722767 27.997500 40.985400 -0.000006 -0.000013 1.383800 3.632630 -76.094100 11.754300 -0.000000 0.000003 -0.000348 0.173291 -9.547920 -2.192510 6.469440 -0.000001 -172.289000 9.497820 -173.994000 -39.081100 -0.002282 -0.040193 0.135781 -0.442273 16.672300 -40.985400 0.000008 0.000006 4.630310 2.227850 -72.064200 -11.754300 -0.000006 -0.000006 -0.011714 0.283696 -5.043880
0.000000 0.000000 0.000000 0.000000 0.000000 -0.000000 -2.424550 91.898600 -0.388286 85.284000 0.953904 6.673300 15.735700 0.000005 -0.000001 83.862500 85.907100 -81.861000 8.984550 -0.406207 -0.000000 0.393695 -1.003610 4.003580 16.377300 -0.000001 -0.000001 10.564100 1.639040 -1.754120 6.456720 -0.000001 -0.000000 -4.255520 0.450873 3.380280 12.994200 -0.242716 4.980390 -93.289900 9.115380 -70.057100 5.348090 -0.000007 -0.000001 -69.464300 18.147000 -3.085830 24.328600 0.000019 0.000005 16.452800 19.578300 -41.388100 22.291600 -0.000001 0.000005 -9.507580 5.034530 6.574520 12.994500 -0.242716 -4.980390 87.523000 6.703960 -69.667100 -5.348130 -0.000001 -0.000004 -69.441800 32.581000 -5.446150 -24.328900 0.000322 -0.000009 1.337190 4.962780 -15.111900 -22.291500 -0.000108 -0.000004 -2.482020 5.291090 0.320850 -2.192480 -6.469440 -0.000000 -175.410000 4.441790 -0.981462 39.081100 -0.000007 -0.000012 0.379612 -0.718355 27.855000 40.985400 -0.000006 -0.000013 1.381630 3.605950 -76.062800 11.754300 -0.000000 0.000003 -0.000448 0.174857 -9.484280 -2.192510 6.469440 -0.000001 -172.311000 9.448260 -174.154000 -39.081100 -0.002282 -0.040193 0.130124 -0.425959 16.577000 -40.985400 0.000008 0.000006 4.433410 2.242100 -71.955800 -11.754300 -0.000006 -0.000006 -0.011381 0.281350 -5.139930
0.000000 0.000000 0.000000 0.000000 0.000000 -0.000000 -2.433050 91.905200 -0.380749 85.301900 0.962771 6.562200 15.735700 0.000005 -0.000001 84.586100 85.960700 -82.545500 8.984550 -0.406207 -0.000000 0.295734 -0.894944 4.080710 16.377300 -0.000001 -0.000001 10.240800 1.381200 -2.111390 6.456720 -0.000001 -0.000000 -4.397760 -0.007551 2.389090 12.994200 -0.242716 4.980390 -93.299300 8.963880 -69.696300 5.348090 -0.000007 -0.000001 -68.724500 15.957600 -3.832320 24.328600 0.000019 0.000005 19.597800 18.409300 -48.424200 22.291600 -0.000001 0.000005 -8.582690 4.992740 7.470350 12.994500 -0.242716 -4.980390 87.501500 6.742950 -69.613800 -5.348130 -0.000001 -0.000004 -69.344700 32.451700 -5.311560 -24.328900 0.000322 -0.000009 1.324490 4.954550 -14.998500 -22.291500 -0.000108 -0.000004 -2.236140 5.291730 0.303245 -2.192480 -6.469440 -0.000000 -175.402000 4.401520 -1.077370 39.081100 -0.000007 -0.000012 0.377735 -0.716258 27.806900 40.985400 -0.000006 -0.000013 1.385120 3.652350 -76.008000 11.754300 -0.000000 0.000003 -0.000375 0.173707 -9.530980 -2.192510 6.469440 -0.000001 -172.295000 9.360300 -174.250000 -39.081100 -0.002282 -0.040193 0.128965 -0.422972 16.543400 -40.985400 0.000008 0.000006 4.392970 2.192270 -71.916900 -11.754300 -0.000006 -0.000006 -0.011274 0.280591 -5.171030
0.000000 0.000000 0.000000 0.000000 0.000000 -0.000000 -2.439900 91.933300 -0.403610 85.319200 1.006710 6.314890 15.735700 0.000005 -0.000001 85.106400 86.060300 -83.001500 8.984550 -0.406207 -0.000000 0.103173 -0.812651 4.207850 16.377300 -0.000001 -0.000001 9.864360 1.003040 -2.637810 6.456720 -0.000001 -0.000000 -4.580330 -0.670663 0.890752 12.994200 -0.242716 4.980390 -93.269500 8.786130 -69.495000 5.348090 -0.000007 -0.000001 -68.056700 13.449700 -4.526410 24.328600 0.000019 0.000005 23.317000 16.618000 -56.430500 22.291600 -0.000001 0.000005 -7.744370 4.952960 8.301830 12.994500 -0.242716 -4.980390 87.468100 6.797930 -69.515800 -5.348130 -0.000001 -0.000004 -69.171700 32.228900 -5.302810 -24.328900 0.000322 -0.000009 1.351040 5.122880 -14.806400 -22.291500 -0.000108 -0.000004 -2.201460 5.290230 0.344882 -2.192480 -6.469440 -0.000000 -175.386000 4.349090 -1.269830 39.081100 -0.000007 -0.000012 0.373133 -0.711980 27.659000 40.985400 -0.000006 -0.000013 1.385120 3.695820 -75.961900 11.754300 -0.000000 0.000003 -0.000527 0.176074 -9.434830 -2.192510 6.469440 -0.000001 -172.282000 9.291710 -174.472000 -39.081100 -0.002282 -0.040193 0.123582 -0.407550 16.439600 -40.985400 0.000008 0.000006 4.192540 2.207310 -71.842400 -11.754300 -0.000006 -0.000006 -0.011501 0.282199 -5.105180
0.000000 0.000000 0.000000 0.000000 0.000000 -0.000000 -2.450200 91.955000 -0.434792 85.352200 0.991778 6.033640 15.735700 0.000005 -0.000001 85.192300 86.166600 -82.992900 8.984550 -0.406207 -0.000000 -0.107103 -0.793442 4.395470 16.377300 -0.000001 -0.000001 9.442650 0.586753 -3.327490 6.456720 -0.000001 -0.000000 -4.895540 -1.276580 -1.306610 12.994200 -0.242716 4.980390 -93.247300 8.656180 -69.344800 5.348090 -0.000007 -0.000001 -67.373000 10.788600 -5.159420 24.328600 0.000019 0.000005 27.332600 13.931400 -65.018500 22.291600 -0.000001 0.000005 -6.448430 4.906270 9.247230 12.994500 -0.242716 -4.980390 87.429600 6.880420 -69.457800 -5.348130 -0.000001 -0.000004 -68.847200 32.164400 -5.439270 -24.328900 0.000322 -0.000009 1.343110 5.160250 -14.621500 -22.291500 -0.000108 -0.000004 -2.191380 5.291430 0.311537 -2.192480 -6.469440 -0.000000 -175.372000 4.298860 -1.519760 39.081100 -0.000007 -0.000012 0.365912 -0.702061 27.529300 40.985400 -0.000006 -0.000013 1.379260 3.739090 -75.805900 11.754300 -0.000000 0.000003 -0.000198 0.170889 -9.645480 -2.192510 6.469440 -0.000001 -172.217000 9.000870 -174.758000 -39.081100 -0.002282 -0.040193 0.120406 -0.398566 16.370200 -40.985400 0.000008 0.000006 4.045250 1.996770 -71.711200 -11.754300 -0.000006 -0.000006 -0.011413 0.281576 -5.130700
0.000000 0.000000 0.000000 0.000000 0.000000 -0.000000 -2.454970 91.999800 -0.463136 85.423100 0.926051 5.737690 15.735700 0.000005 -0.000001 84.893600 86.270700 -82.575400 8.984550 -0.406207 -0.000000 -0.316041 -0.827107 4.631510 16.377300 -0.000001 -0.000001 8.989060 0.190521 -4.225250 6.456720 -0.000001 -0.000000 -5.562040 -1.751150 -4.335770 12.994200 -0.242716 4.980390 -93.225800 8.561270 -69.263900 5.348090 -0.000007 -0.000001 -66.707100 8.093260 -5.625780 24.328600 0.000019 0.000005 31.160500 10.055900 -73.888800 22.291600 -0.000001 0.000005 -4.590270 4.843040 10.487400 12.994500 -0.242716 -4.980390 87.373100 6.993140 -69.352100 -5.348130 -0.000001 -0.000004 -68.426900 32.140400 -5.660950 -24.328900 0.000322 -0.000009 1.325660 5.106880 -14.583800 -22.291500 -0.000108 -0.000004 -2.075970 5.290160 0.346666 -2.192480 -6.469440 -0.000000 -175.401000 4.152510 -1.683910 39.081100 -0.000007 -0.000012 0.358011 -0.695340 27.243500 40.985400 -0.000006 -0.000013 1.390040 3.809800 -75.678900 11.754300 -0.000000 0.000003 -0.000149 0.170098 -9.677590 -2.192510 6.469440 -0.000001 -172.228000 8.703510 -175.031000 -39.081100 -0.002282 -0.040193 0.112593 -0.374665 16.258600 -40.985400 0.000008 0.000006 3.688620 1.886390 -71.604900 -11.754300 -0.000006 -0.000006 -0.011516 0.282305 -5.100860
